<svg width="94" height="55" viewBox="0 0 94 55" fill="none" xmlns="http://www.w3.org/2000/svg">
<path d="M82.1667 54.294L80.399 53.0088C81.3922 51.6814 82.3749 50.3352 83.2857 48.9055L85.0888 50.1212C84.2452 51.5379 83.1682 52.9372 82.1667 54.294ZM87.8824 45.8968L85.9872 44.7825C86.8745 43.2669 87.6402 41.8445 88.2904 40.4376L90.2624 41.3352C89.5487 42.8957 88.7544 44.4183 87.8824 45.8968ZM92.0967 36.5107L90.0017 35.8806C90.1615 35.3694 90.3 34.8205 90.4303 34.301C90.6749 33.2724 90.8517 32.229 90.9596 31.1776L93.1306 31.3684C93.0162 32.5176 92.8279 33.6584 92.5668 34.7838C92.5143 35.309 92.273 35.9405 92.0967 36.5107ZM93.0702 26.0489L90.8905 26.2844C90.7274 24.6993 90.3828 23.1386 89.8635 21.6329L91.9423 20.9089C92.5269 22.6046 92.923 24.3599 93.1232 26.143L93.0702 26.0489ZM87.7723 17.4317C86.8912 16.147 85.802 15.0179 84.5492 14.0907L85.8413 12.3225C87.2848 13.3941 88.5395 14.6979 89.5544 16.1807L87.7723 17.4317ZM80.4143 11.9568C78.9094 11.4685 77.348 11.1731 75.7675 11.0778L75.916 8.91225C77.684 8.99763 79.4313 9.3232 81.11 9.87993L80.4143 11.9568ZM70.9273 11.2245C69.4813 11.3941 67.8842 11.6486 66.0794 12.0201L65.5864 9.81912C67.263 9.44987 68.9587 9.17392 70.6655 8.99258L70.9273 11.2245ZM61.1992 13.156L59.7141 13.521L56.3025 14.3508L55.7718 12.171L59.1538 11.3331L60.6579 10.9574L61.1992 13.156ZM51.3105 15.3761C49.6273 15.6544 47.9206 15.8467 46.2115 15.9908L46.0593 13.821C47.6905 13.6712 49.3489 13.4813 50.9649 13.2161L51.3105 15.3761ZM41.0918 16.171C39.3865 16.189 37.6765 16.1106 36.0126 15.9814L36.18 13.8052C37.8145 13.9262 39.4655 13.9883 41.1036 13.9833L41.0918 16.171ZM30.9067 15.4351C29.2358 15.1611 27.5438 14.8495 25.8872 14.4683L26.3872 12.3528C27.9848 12.7176 29.6178 13.0129 31.2297 13.2705L30.9067 15.4351ZM20.9673 13.1481C19.3332 12.6304 17.7158 12.0537 16.155 11.4451L16.9497 9.41164C18.481 10.012 20.0773 10.551 21.604 11.0548L20.9673 13.1481ZM11.4044 9.41003C9.88507 8.65423 8.38228 7.83954 6.92553 6.97414L8.03844 5.10849C9.44452 5.92805 10.9072 6.71571 12.3865 7.44449L11.4044 9.41003ZM2.63449 4.20946C1.8414 3.63969 1.04829 3.06992 0.28237 2.46008L1.62512 0.73769C2.38045 1.32871 3.13347 1.87145 3.89708 2.43302L2.63449 4.20946Z" fill="#F1F1F1"/>
</svg>
